<?xml version="1.0" encoding="utf-8"?>
<!-- Generator: Adobe Illustrator 20.0.0, SVG Export Plug-In . SVG Version: 6.00 Build 0)  -->
<svg version="1.1" id="Layer_1" xmlns="http://www.w3.org/2000/svg" xmlns:xlink="http://www.w3.org/1999/xlink" x="0px" y="0px"
	 viewBox="0 0 303.7 113.5" style="enable-background:new 0 0 303.7 113.5;" xml:space="preserve">
<style type="text/css">
	.st0{fill:#FFFFFF;}
</style>
<g>
	<path class="st0" d="M2,4.8c1.5,0,3.1,0,4.6,0c0.6,0,0.8,0.2,0.9,0.8C9.7,17.3,11.9,29,14,40.7c1.2,6.8,2.4,13.5,3.6,20.3
		c0.1,0.5,0.2,1,0.4,1.5c-1.7-19.2-0.8-38.4-1.1-57.7c1.9,0,3.6,0,5.4,0c0,34.7,0,69.4,0,104.1c-1.8,0-3.5,0-5.4,0
		c0-0.4,0-0.8,0-1.2c0-6.4-0.1-12.8,0-19.2c0.1-4.4-0.5-8.7-1.4-13C13.4,64.8,11.2,54,9.1,43.1c-1-5.4-1.6-10.9-2.5-16.3
		c0.1,1.8,0.2,3.5,0.3,5.3c0.2,4.8,0.6,9.6,0.6,14.4c0.1,20.4,0,40.9,0,61.3c0,0.3,0,0.7,0,1.1c-1.9,0-3.7,0-5.5,0
		C2,74.3,2,39.6,2,4.8z"/>
	<path class="st0" d="M151.6,3.9c0.6,0.1,1.3,0.2,1.9,0.3c3.9,0.8,6.3,3.3,7,7.4c0.3,1.5,0.4,3,0.4,4.4c0,6.4,0,12.7,0,19.1
		c0,0.2,0,0.4,0,0.7c-1.8,0-3.6,0-5.6,0c0-0.4,0-0.8,0-1.2c0-6.4,0-12.8,0-19.2c0-0.9-0.2-1.8-0.4-2.7c-0.7-2.5-2.1-3.5-4.6-3.3
		c-1.9,0.1-3.3,1.5-3.7,3.8c-0.2,1.5-0.4,3-0.4,4.4c0,26.1,0,52.2,0,78.3c0,1.5,0.1,3.1,0.4,4.6c0.4,2.6,2,4,4.3,3.9
		c2.3,0,3.9-1.6,4.2-4.2c0.2-1.5,0.3-3,0.3-4.6c0-5.9,0-11.8,0-17.7c0-0.4,0-0.8,0-1.3c1.9,0,3.7,0,5.6,0c0,0.3,0.1,0.6,0.1,0.9
		c0,6.5,0.1,13.1,0,19.6c0,2.1-0.2,4.2-0.8,6.2c-0.9,3.5-3.3,5.5-7,6c-2.2,0.3-4.4,0.3-6.6-0.4c-3.8-1.3-5.2-4.3-5.8-7.9
		c-0.2-1.3-0.2-2.6-0.2-3.9c0-27.4,0-54.9,0-82.3c0-1.8,0.5-3.7,1.1-5.5c1.1-3.4,3.8-4.9,7.2-5.3c0.4,0,0.8-0.1,1.2-0.2
		C150.6,3.9,151.1,3.9,151.6,3.9z"/>
	<path class="st0" d="M302,109c-3.6-0.1-7.2,0.1-10.7-0.2c-5.5-0.4-8.7-3.7-9-9.2c-0.3-5.1-0.2-10.1-0.2-15.2c0-3.3,0-6.6,0.2-9.8
		c0.2-3.1,1.3-5.8,4.1-7.5c1.6-1,3.5-1.5,5.4-1.6c1.6-0.1,3.3,0,4.9,0c0-0.5,0.1-0.7,0.1-0.9c0-6.6,0-13.3-0.1-19.9
		c0-0.7-0.1-1.5-0.3-2.1c-0.8-2.9-2.3-3.4-4.2-3.5c-2.2,0-3.8,1.4-4.2,3.8c-0.3,1.6-0.3,3.3-0.3,5c0,2.5,0,5.1,0,7.7
		c-1.9,0-3.7,0-5.5,0c0,0-0.1-0.1-0.1-0.2c0.1-4.9-0.6-9.9,0.6-14.8c1-4.2,3.9-6.6,8.1-6.9c2.6-0.2,5.2,0,7.5,1.4
		c1.9,1.2,2.9,3,3.5,5.1c0,0.2,0.2,0.3,0.2,0.5C302,63.5,302,86.3,302,109z M296.9,70.6c-1.6,0.1-3,0.1-4.4,0.3
		c-3.1,0.4-4.5,2.1-4.5,5.3c-0.2,7.3-0.1,14.7,0,22c0,2,0.7,3.9,2.8,4.8c2,0.9,4.1,0.7,6.2,0.7C296.9,92.7,296.9,81.8,296.9,70.6z"
		/>
	<path class="st0" d="M259.7,109c-1.9,0-3.7,0-5.6,0c0-0.5,0-0.9,0-1.3c0-20.4,0-40.9,0-61.3c0-1.5-0.2-3-0.6-4.5
		c-0.5-1.9-2-2.8-3.9-2.8c-2,0-3.5,1-3.9,3c-0.4,1.8-0.6,3.6-0.6,5.4c0,20.1,0,40.1,0,60.2c0,0.4,0,0.9,0,1.4c-1.8,0-3.6,0-5.5,0
		c0-0.4,0-0.8,0-1.1c0-20.4,0-40.9,0-61.3c0-2.5,0.1-4.9,1-7.2c1.4-3.8,4.4-5.3,8.2-5.6c3.2-0.2,6.1,0.5,8.3,3
		c3-3.1,6.7-3.6,10.6-2.7c4.4,0.9,6.2,3.9,6.8,8.3c0.2,1.6,0.2,3.3,0.2,4.9c0,20.1,0,40.2,0,60.3c0,0.4,0,0.9,0,1.4
		c-1.8,0-3.6,0-5.5,0c0-0.4,0-0.8,0-1.2c0-20.1,0-40.3,0-60.4c0-1.5-0.1-3-0.4-4.5c-0.4-2.5-2.1-3.9-4.3-3.8
		c-2.3,0.1-3.9,1.5-4.2,3.9c-0.2,1.6-0.3,3.3-0.3,4.9c0,19.9,0,39.8,0,59.7C259.7,108,259.7,108.5,259.7,109z"/>
	<path class="st0" d="M132.6,71.9c0,8.8,0,17.7,0,26.5c0,1.8-0.4,3.7-0.9,5.5c-1,3.3-3.3,5.3-6.8,5.6c-1.9,0.2-4,0.3-5.8-0.2
		c-4.4-1-6-4.1-6.6-8.3c-0.2-1.9-0.2-3.9-0.2-5.8c0-16.4,0-32.7,0-49.1c0-2.3,0.2-4.6,1-6.9c1.3-3.6,4.1-5.2,7.6-5.5
		c2.1-0.2,4.2-0.1,6.1,0.7c3.6,1.5,4.9,4.5,5.3,8.1c0.2,1.9,0.2,3.8,0.2,5.7C132.6,56.1,132.6,64,132.6,71.9L132.6,71.9z
		 M117.9,71.6C117.9,71.6,117.8,71.6,117.9,71.6c-0.1,8-0.1,16-0.1,24c0,1.6,0.1,3.3,0.3,4.9c0.4,2.6,2,4,4.2,4c2.3,0,3.9-1.4,4.2-4
		c0.2-1.6,0.3-3.3,0.3-4.9c0-16,0-31.9,0-47.9c0-1.6-0.1-3.1-0.3-4.7c-0.4-2.5-1.8-3.9-4.1-3.9c-2.1,0-3.5,0.6-4.3,3.5
		c-0.2,0.7-0.3,1.4-0.3,2.1C117.9,53.6,117.9,62.6,117.9,71.6z"/>
	<path class="st0" d="M231.7,72.8c-4.9,0-9.8,0-14.6,0c0,0.3-0.1,0.5-0.1,0.8c0,8.4,0,16.9,0.1,25.3c0,1.4,0.5,2.9,1.2,4.1
		c1,1.6,2.7,1.8,4.5,1.3c1.9-0.5,2.7-2,2.9-3.7c0.2-1.6,0.3-3.3,0.4-4.9c0-3.1,0-6.3,0-9.4c0-0.4,0-0.8,0-1.2c1.9,0,3.7,0,5.5,0
		c0,0.3,0.1,0.5,0.1,0.7c0,4.3,0.1,8.6,0,12.9c-0.1,1.8-0.4,3.6-0.9,5.3c-1,3.2-3.4,5.1-6.7,5.5c-1.9,0.2-4,0.2-5.9-0.2
		c-4.3-0.9-6-4.1-6.5-8.4c-0.2-2.1-0.2-4.2-0.2-6.3c0-16.2,0-32.3,0-48.5c0-2.3,0.2-4.6,1-6.8c1.3-3.6,4-5.2,7.6-5.6
		c2.1-0.2,4.2-0.1,6.1,0.7c3.6,1.5,5,4.5,5.4,8.1c0.2,2.3,0.2,4.7,0.2,7c0,7.3,0,14.6,0,21.9C231.7,71.8,231.7,72.2,231.7,72.8z
		 M226.1,67.4c0-0.4,0.1-0.6,0.1-0.9c0-6.5,0-13.1,0-19.6c0-1.3-0.1-2.7-0.3-4c-0.4-2.5-1.8-3.9-4.1-3.9c-2.1,0-3.5,0.6-4.3,3.5
		c-0.2,0.7-0.3,1.4-0.3,2.1c0,7.3-0.1,14.7-0.1,22c0,0.2,0.1,0.5,0.1,0.7C220.1,67.4,223.1,67.4,226.1,67.4z"/>
	<path class="st0" d="M45.6,85c1.9,0,3.6,0,5.4,0c0,0.3,0.1,0.6,0.1,0.8c0,4.3,0.1,8.5,0,12.8c0,1.7-0.3,3.4-0.8,4.9
		c-1,3.4-3.3,5.4-6.9,6c-2.2,0.3-4.4,0.3-6.6-0.4c-3.8-1.2-5.3-4.2-5.8-8.2c-0.2-2-0.2-4.1-0.2-6.1c0-16.2,0-32.5,0-48.7
		c0-2.3,0.2-4.6,1-6.9c1.3-3.7,4.1-5.2,7.8-5.5c2-0.2,4.1-0.1,6,0.7c3.6,1.5,4.9,4.5,5.3,8c0.2,1.8,0.2,3.6,0.2,5.5
		c0,7.8,0,15.7,0,23.5c0,0.4,0,0.8,0,1.3c-4.9,0-9.8,0-14.7,0c0,0.4-0.1,0.6-0.1,0.9c0,8.4,0,16.8,0.1,25.2c0,1.5,0.3,3,1.3,4.2
		c1.2,1.4,2.8,1.7,4.5,1.2c1.9-0.5,2.7-1.9,3-3.7c0.3-1.6,0.3-3.3,0.4-5c0-3.3,0-6.6,0-9.9C45.5,85.5,45.6,85.3,45.6,85z M45.4,67.4
		c0-0.3,0.1-0.5,0.1-0.8c0-6.6,0-13.1,0-19.7c0-1.3-0.1-2.7-0.3-4c-0.5-2.5-2-3.9-4.2-3.9c-1.9,0-3.4,0.6-4.2,3.5
		c-0.2,0.7-0.3,1.4-0.3,2.1c0,7.4-0.1,14.7-0.1,22.1c0,0.2,0,0.4,0.1,0.6C39.5,67.4,42.4,67.4,45.4,67.4z"/>
	<path class="st0" d="M203.7,109c-1.9,0-3.6,0-5.5,0c0-0.5,0-0.9,0-1.4c0-19.9,0-39.7,0-59.6c0-1.3-0.1-2.6-0.3-3.9
		c-0.6-3.3-2.4-4.7-5.7-4.6c-1,0-2,0.2-3.1,0.3c0,23.1,0,46.1,0,69.1c-1.9,0-3.7,0-5.7,0c0-0.4,0-0.7,0-1.1c0-23.8,0-47.7,0-71.5
		c0-0.9,0.2-1.2,1.1-1.4c3.2-0.5,6.3-1,9.5-0.6c5.8,0.7,8.6,3.4,9.5,9.2c0.2,1.1,0.2,2.3,0.2,3.4c0,20.4,0,40.8,0,61.2
		C203.7,108.4,203.7,108.6,203.7,109z"/>
	<path class="st0" d="M73.4,34.4c1.9,0,3.7,0,5.6,0c0,0.4,0,0.8,0,1.2c0,20.4,0,40.7,0,61.1c0,2.6-0.1,5.2-1.1,7.6
		c-1.3,3.4-3.9,5-7.3,5.3c-1.8,0.2-3.6,0-5.3-0.3c-4-0.9-5.8-3.9-6.4-7.7c-0.2-1.6-0.3-3.3-0.3-4.9c0-20.3,0-40.7,0-61
		c0-0.4,0-0.8,0-1.2c1.9,0,3.7,0,5.5,0c0,0.5,0,1,0,1.4c0,20,0,40,0,60c0,1.8,0.2,3.7,0.6,5.5c0.5,2.1,1.9,3,4,3s3.4-0.9,3.9-2.9
		c0.4-1.5,0.6-3,0.6-4.5c0-20.4,0-40.8,0-61.2C73.4,35.4,73.4,34.9,73.4,34.4z"/>
	<path class="st0" d="M107.4,55.6c-2.1,0-3.9,0-5.7,0c0-1.2,0-2.3,0-3.5c-0.1-2.6,0-5.3-0.4-7.9c-0.5-3.3-2.4-4.7-5.7-4.6
		c-1,0-2,0.2-3.1,0.3c0,23.1,0,46.1,0,69.1c-1.9,0-3.7,0-5.6,0c0-0.4,0-0.7,0-1.1c0-23.8,0-47.6,0-71.5c0-0.9,0.2-1.3,1.2-1.4
		c4.2-0.7,8.5-1.3,12.7,0.1c3.5,1.2,5.5,3.8,5.9,7.3C107.2,46.7,107.2,51.1,107.4,55.6z"/>
	<path class="st0" d="M169.7,34.5c1.9,0,3.6,0,5.5,0c0,24.8,0,49.6,0,74.5c-1.8,0-3.6,0-5.5,0C169.7,84.2,169.7,59.4,169.7,34.5z"/>
	<path class="st0" d="M169.7,10.4c1.9,0,3.7,0,5.5,0c0,4.7,0,9.4,0,14.2c-1.8,0-3.6,0-5.5,0C169.7,19.8,169.7,15.1,169.7,10.4z"/>
</g>
</svg>
